Coordinates
version=1
nRows=17
nColumns=36
inDegrees=yes

Units are S.I. units (second, meters, Newtons, ...)
If the header above contains a line with 'inDegrees', this indicates whether rotational values are in degrees (yes) or radians (no).

endheader
time	pelvis_tilt	pelvis_list	pelvis_rotation	pelvis_tx	pelvis_ty	pelvis_tz	hip_flexion_r	hip_adduction_r	hip_rotation_r	knee_angle_r	knee_angle_r_beta	ankle_angle_r	subtalar_angle_r	mtp_angle_r	hip_flexion_l	hip_adduction_l	hip_rotation_l	knee_angle_l	knee_angle_l_beta	ankle_angle_l	subtalar_angle_l	mtp_angle_l	lumbar_extension	lumbar_bending	lumbar_rotation	arm_flex_r	arm_add_r	arm_rot_r	elbow_flex_r	pro_sup_r	arm_flex_l	arm_add_l	arm_rot_l	elbow_flex_l	pro_sup_l
      0.00000000	     -4.27062101	     -0.83582992	      8.62803086	      0.65525651	      0.93478869	      0.01539559	      5.26350563	      5.14584099	     11.65586421	      9.00873667	      0.15723212	      3.18484272	    -16.31399960	     -6.37107366	     18.82339054	     -2.75385764	      4.84539664	     21.68353300	      0.37844904	      7.34198387	     -6.56678803	     -6.37107366	      3.23629120	     -0.21056333	     -5.00055719	     47.53721702	     12.84974942	     66.50657944	    126.20289200	    103.47200465	     37.34536984	     13.34262758	     61.93821616	    111.24566164	    100.91562229
      0.01666670	     -4.39536619	     -1.25570241	      7.12071501	      0.65624126	      0.93172615	      0.01581418	      5.31842077	      5.52436399	     14.24694909	      8.76771390	      0.15302548	      5.74411716	    -15.91789631	     -6.48010533	     19.09889395	     -3.30128102	      4.44621692	     22.33595114	      0.38983589	      6.42272816	     -6.30059308	     -6.48010533	      4.40301246	      1.10042672	     -4.65334597	     50.20751087	     13.17297151	     67.72674277	    127.54681002	    102.07755993	     38.39888758	     13.80640003	     65.37179491	    115.25828739	     99.18625939
      0.03333330	     -5.60296101	     -1.28059944	      6.01233822	      0.65791531	      0.92638068	      0.01684640	      6.04312078	      5.48627131	     15.01981887	      8.38706363	      0.14638187	      5.59577603	    -16.65720275	     -6.92205609	     20.44938509	     -3.54832223	      3.46185643	     22.58668122	      0.39421195	      6.46299937	     -6.07941258	     -6.92205609	      6.16267206	      1.02296239	     -3.80684360	     50.48520611	     13.35195185	     68.98293238	    128.37786857	    102.33415731	     38.57944091	     13.99360149	     67.53430945	    117.40197223	     93.74346223
      0.05000000	     -6.01946761	     -1.05095671	      5.32312272	      0.65818359	      0.92598434	      0.01802716	      6.45160684	      5.31720749	     15.34983573	      8.55162078	      0.14925394	      6.28392818	    -15.95516851	     -7.23092800	     20.82536828	     -3.46449019	      3.05721870	     22.80296174	      0.39798676	      7.03468238	     -6.36463037	     -7.23092800	      6.59182043	      0.64453817	     -3.43071026	     50.51617759	     13.54631066	     70.13037205	    128.67330310	    103.19576438	     38.97395485	     14.35521414	     68.64126712	    117.53898877	     90.45411684
      0.06666670	     -6.47707677	     -1.00835442	      4.83177185	      0.65889152	      0.92579015	      0.01853058	      6.88243635	      5.31945468	     15.47676571	      8.58778963	      0.14988520	      6.65571578	    -15.39971673	     -7.25432160	     21.23244452	     -3.62046783	      2.64835056	     22.81882881	      0.39826369	      7.51492122	     -6.37267060	     -7.25432160	      7.09031356	      0.65547237	     -3.19408581	     50.43283203	     13.42559679	     71.54955065	    128.64214087	    101.29230147	     38.94798245	     14.50701299	     69.55084058	    117.23992367	     88.77742840
      0.08333330	     -6.54218568	     -0.94796604	      4.39820313	      0.65887038	      0.93065894	      0.01895099	      6.83225095	      5.26776094	     15.57780277	      8.44721514	      0.14743172	      6.33318038	    -15.03156615	     -7.25630575	     21.10751115	     -3.70753967	      2.30507303	     22.58375463	      0.39416088	      7.69783017	     -6.38029510	     -7.25630575	      7.24310572	      0.68226703	     -3.23086605	     50.08166131	     13.30556367	     72.41074512	    128.40177511	    101.24894640	     38.37956505	     14.77086076	     70.30175244	    117.00683875	     88.65253141
      0.10000000	     -6.67924211	     -0.90504252	      4.12379175	      0.65904352	      0.92533113	      0.01925535	      6.87785571	      5.20272235	     15.53648161	      8.25674442	      0.14410738	      6.69636565	    -14.34334866	     -7.26927874	     21.24336701	     -3.81735670	      1.79293744	     22.62202607	      0.39482884	      8.22821411	     -6.05455803	     -7.26927874	      7.58838156	      0.67004916	     -3.23561301	     50.42988516	     13.19114614	     73.33627974	    128.42269381	     98.37628264	     38.41306283	     15.47764160	     71.81069807	    116.81903049	     85.88161233
      0.11666670	     -6.75990764	     -0.86561420	      4.05764587	      0.65881768	      0.92795989	      0.01912137	      6.74333644	      5.10092968	     15.74385066	      7.80263488	      0.13618167	      6.20396731	    -14.74903686	     -7.34427495	     21.24797404	     -3.81149574	      1.59693300	     22.56704846	      0.39386930	      8.24405996	     -5.93739379	     -7.34427495	      8.00231780	      0.59959411	     -3.16124433	     50.22860633	     12.90038219	     72.90402519	    128.12884926	     98.98367672	     38.18804871	     15.90448364	     72.83781046	    116.58014936	     79.15998856
      0.13333330	     -6.77431786	     -0.85037614	      3.96312621	      0.65895910	      0.92533761	      0.01933167	      6.72479580	      5.05792049	     15.73170069	      7.69961214	      0.13438358	      6.30489513	    -14.47537774	     -7.35165439	     21.25031245	     -3.81760022	      1.44107048	     22.72735781	      0.39666722	      8.43412832	     -5.78156863	     -7.35165439	      8.25777079	      0.56199880	     -3.35116450	     50.42045199	     13.05267150	     72.30425124	    128.03021726	     98.21503195	     38.07609674	     16.28544945	     73.41906950	    116.63260684	     78.64174913
      0.15000000	     -6.83394526	     -0.76861896	      3.91043370	      0.65868181	      0.92546248	      0.01961542	      6.76959603	      4.96050043	     15.72889726	      7.61162629	      0.13284794	      6.23649114	    -14.58205730	     -7.36143393	     21.12294835	     -3.76138426	      1.29686944	     22.45461515	      0.39190697	      8.52971317	     -5.62965171	     -7.36143393	      8.43592712	      0.35548022	     -3.48099860	     50.59234575	     13.13328821	     71.60811874	    128.06946849	     97.39824562	     38.42935874	     16.39824381	     73.50416924	    116.66339014	     77.50598180
      0.16666670	     -6.71839226	     -0.70377597	      3.79308417	      0.65879805	      0.92592756	      0.01960867	      6.61523669	      4.91172440	     15.99312873	      7.51117118	      0.13109467	      6.11472819	    -14.89009306	     -7.42295107	     20.76929370	     -3.70543661	      1.27574809	     22.04329796	      0.38472813	      8.70992559	     -5.50091010	     -7.42295107	      8.36161301	      0.15480543	     -3.89074811	     50.48874258	     13.24323747	     71.27176205	    128.03049964	     97.65465452	     38.86991367	     16.07495340	     73.06766776	    116.44411252	     72.63461525
      0.18333330	     -6.66359753	     -0.61119702	      3.70345508	      0.65853540	      0.92865895	      0.01956189	      6.49321038	      4.83159155	     15.93895756	      7.42847013	      0.12965126	      6.12163486	    -14.87498270	     -7.43328620	     20.49211747	     -3.61354848	      1.28013596	     21.63714393	      0.37763940	      8.60203268	     -5.60247284	     -7.43328620	      8.29351573	      0.00811118	     -4.26092944	     50.31980997	     13.36338531	     71.20977689	    128.05971335	     96.41145284	     38.95830568	     15.64214074	     72.54800294	    116.34099260	     71.54586778
      0.20000000	     -6.76645847	     -0.59130849	      3.50960838	      0.65366007	      0.92808523	      0.02236784	      6.77927151	      4.88307791	     15.80404771	      7.51058319	      0.13108441	      6.19078455	    -14.99144248	     -7.43359002	     20.61781222	     -3.66200435	      1.22060172	     21.43136842	      0.37404794	      8.68702604	     -5.63836251	     -7.43359002	      8.07096205	     -0.08480636	     -4.13781643	     50.41405210	     13.36872137	     71.17168834	    128.11656429	     96.44671927	     39.37591862	     15.18993583	     72.15645275	    116.26990941	     71.50851026
      0.21666670	     -6.78167901	     -0.57526692	      3.35223663	      0.65343125	      0.92761971	      0.02263560	      6.97826098	      4.94118839	     15.85391920	      7.66897360	      0.13384884	      6.19141983	    -15.23506600	     -7.46818030	     20.66422334	     -3.72348008	      1.14425348	     21.30347224	      0.37181573	      8.63399479	     -5.59135977	     -7.46818030	      7.82141519	     -0.19766117	     -4.19150063	     50.60486397	     13.46753761	     71.09784700	    128.06792859	     97.42504837	     39.51389967	     14.95580536	     71.73035914	    116.31675475	     69.97132591
      0.23333330	     -6.80591616	     -0.54965223	      3.26378667	      0.65376277	      0.92749963	      0.02254374	      7.16956976	      4.98070169	     15.79738856	      7.80762383	      0.13626874	      6.25103385	    -15.33496704	     -7.48411179	     20.71857647	     -3.75850967	      1.01505429	     21.26507065	      0.37114550	      8.67786988	     -5.41477609	     -7.48411179	      7.72902756	     -0.20015026	     -4.09433260	     50.72082004	     13.49928450	     71.26585349	    128.05791333	     97.04351496	     39.60303335	     14.96561395	     71.70297443	    116.49831992	     69.22579278
      0.25000000	     -6.79365679	     -0.55280075	      3.38542580	      0.65355074	      0.92742312	      0.02278510	      7.25115362	      5.03802968	     15.65007577	      7.91927026	      0.13821734	      6.32232892	    -15.33656246	     -7.49275833	     20.83906343	     -3.76411585	      1.03047771	     21.38895999	      0.37330778	      8.68299208	     -5.35082419	     -7.49275833	      7.52737322	     -0.18638415	     -4.15206798	     50.66357540	     13.52759394	     71.27785150	    128.14211735	     96.45455298	     39.65006737	     14.85009027	     71.63970579	    116.66672314	     69.06256421
      0.26666670	     -6.71308643	     -0.48780421	      3.46097320	      0.65375869	      0.92489548	      0.02301595	      7.26222291	      5.02665412	     15.58124017	      8.13857310	      0.14204490	      6.53122578	    -15.33382464	     -7.49362032	     20.90299802	     -3.71035662	      1.06693812	     21.65936319	      0.37802720	      8.79702332	     -5.28525720	     -7.49362032	      7.39978904	     -0.20943434	     -4.38621003	     50.54627910	     13.63825054	     71.20048432	    128.19119192	     95.18643137	     39.78569343	     14.65889475	     71.31851682	    116.90082119	     68.59755158
